<mxfile host="app.diagrams.net" modified="2024-03-13T02:29:29.201Z" agent="Mozilla/5.0 (Windows NT 10.0; Win64; x64) AppleWebKit/537.36 (KHTML, like Gecko) Chrome/122.0.0.0 Safari/537.36" etag="AnrxbzAqacuLAgUHFjSd" version="24.0.5" type="github">
  <diagram name="Page-1" id="Am-4yuEEbxHZaaMcZNw2">
    <mxGraphModel dx="2944" dy="520" grid="1" gridSize="10" guides="1" tooltips="1" connect="1" arrows="1" fold="1" page="1" pageScale="1" pageWidth="850" pageHeight="1100" math="0" shadow="0">
      <root>
        <mxCell id="0" />
        <mxCell id="1" parent="0" />
        <mxCell id="0APZrc8GkW91wkG1R6Uz-18" value="" style="rounded=0;whiteSpace=wrap;html=1;" parent="1" vertex="1">
          <mxGeometry x="170" y="40" width="640" height="1040" as="geometry" />
        </mxCell>
        <mxCell id="0APZrc8GkW91wkG1R6Uz-1" value="USE CASE DIAGRAM" style="text;html=1;align=center;verticalAlign=middle;whiteSpace=wrap;rounded=0;fontStyle=1" parent="1" vertex="1">
          <mxGeometry x="30" y="10" width="140" height="30" as="geometry" />
        </mxCell>
        <mxCell id="0APZrc8GkW91wkG1R6Uz-2" value="PPC/Admin" style="shape=umlActor;verticalLabelPosition=bottom;verticalAlign=top;html=1;outlineConnect=0;" parent="1" vertex="1">
          <mxGeometry x="10" y="140" width="30" height="60" as="geometry" />
        </mxCell>
        <mxCell id="0APZrc8GkW91wkG1R6Uz-4" value="&amp;nbsp;Sistem Pengelolaan SPK" style="text;html=1;align=center;verticalAlign=middle;whiteSpace=wrap;rounded=0;fontStyle=1" parent="1" vertex="1">
          <mxGeometry x="370" y="50" width="180" height="30" as="geometry" />
        </mxCell>
        <mxCell id="0APZrc8GkW91wkG1R6Uz-5" value="Login" style="ellipse;whiteSpace=wrap;html=1;" parent="1" vertex="1">
          <mxGeometry x="270" y="200" width="120" height="60" as="geometry" />
        </mxCell>
        <mxCell id="0APZrc8GkW91wkG1R6Uz-6" value="Input data login" style="ellipse;whiteSpace=wrap;html=1;" parent="1" vertex="1">
          <mxGeometry x="470" y="205" width="120" height="50" as="geometry" />
        </mxCell>
        <mxCell id="0APZrc8GkW91wkG1R6Uz-7" value="Register" style="ellipse;whiteSpace=wrap;html=1;" parent="1" vertex="1">
          <mxGeometry x="270" y="130" width="120" height="60" as="geometry" />
        </mxCell>
        <mxCell id="0APZrc8GkW91wkG1R6Uz-8" value="Melihat Dashboard SPK" style="ellipse;whiteSpace=wrap;html=1;" parent="1" vertex="1">
          <mxGeometry x="270" y="270" width="120" height="60" as="geometry" />
        </mxCell>
        <mxCell id="0APZrc8GkW91wkG1R6Uz-9" value="Create/ Tambah Data" style="ellipse;whiteSpace=wrap;html=1;" parent="1" vertex="1">
          <mxGeometry x="270" y="340" width="120" height="60" as="geometry" />
        </mxCell>
        <mxCell id="0APZrc8GkW91wkG1R6Uz-10" value="Logout" style="ellipse;whiteSpace=wrap;html=1;" parent="1" vertex="1">
          <mxGeometry x="270" y="890" width="120" height="60" as="geometry" />
        </mxCell>
        <mxCell id="0APZrc8GkW91wkG1R6Uz-11" value="Read/Melihat Data" style="ellipse;whiteSpace=wrap;html=1;" parent="1" vertex="1">
          <mxGeometry x="270" y="410" width="120" height="60" as="geometry" />
        </mxCell>
        <mxCell id="0APZrc8GkW91wkG1R6Uz-12" value="Update/Edit Data" style="ellipse;whiteSpace=wrap;html=1;" parent="1" vertex="1">
          <mxGeometry x="270" y="480" width="120" height="60" as="geometry" />
        </mxCell>
        <mxCell id="0APZrc8GkW91wkG1R6Uz-13" value="Delete Data" style="ellipse;whiteSpace=wrap;html=1;" parent="1" vertex="1">
          <mxGeometry x="270" y="550" width="120" height="60" as="geometry" />
        </mxCell>
        <mxCell id="0APZrc8GkW91wkG1R6Uz-15" value="Go to SPK Menu" style="ellipse;whiteSpace=wrap;html=1;" parent="1" vertex="1">
          <mxGeometry x="270" y="615" width="120" height="60" as="geometry" />
        </mxCell>
        <mxCell id="0APZrc8GkW91wkG1R6Uz-16" value="Go to Visualization Menu" style="ellipse;whiteSpace=wrap;html=1;" parent="1" vertex="1">
          <mxGeometry x="270" y="680" width="120" height="60" as="geometry" />
        </mxCell>
        <mxCell id="0APZrc8GkW91wkG1R6Uz-19" value="Go to Permesinan Menu" style="ellipse;whiteSpace=wrap;html=1;" parent="1" vertex="1">
          <mxGeometry x="270" y="750" width="120" height="60" as="geometry" />
        </mxCell>
        <mxCell id="0APZrc8GkW91wkG1R6Uz-20" value="Go to Gudang Menu" style="ellipse;whiteSpace=wrap;html=1;" parent="1" vertex="1">
          <mxGeometry x="270" y="820" width="120" height="60" as="geometry" />
        </mxCell>
        <mxCell id="0APZrc8GkW91wkG1R6Uz-21" value="Input data register" style="ellipse;whiteSpace=wrap;html=1;" parent="1" vertex="1">
          <mxGeometry x="470" y="135" width="120" height="50" as="geometry" />
        </mxCell>
        <mxCell id="0APZrc8GkW91wkG1R6Uz-22" value="" style="endArrow=none;html=1;rounded=0;exitX=1;exitY=0.3333333333333333;exitDx=0;exitDy=0;exitPerimeter=0;entryX=0;entryY=0.5;entryDx=0;entryDy=0;" parent="1" source="0APZrc8GkW91wkG1R6Uz-2" target="0APZrc8GkW91wkG1R6Uz-7" edge="1">
          <mxGeometry width="50" height="50" relative="1" as="geometry">
            <mxPoint x="190" y="205" as="sourcePoint" />
            <mxPoint x="240" y="155" as="targetPoint" />
          </mxGeometry>
        </mxCell>
        <mxCell id="0APZrc8GkW91wkG1R6Uz-23" value="" style="endArrow=none;html=1;rounded=0;exitX=1;exitY=0.3333333333333333;exitDx=0;exitDy=0;exitPerimeter=0;entryX=0;entryY=0.5;entryDx=0;entryDy=0;" parent="1" source="0APZrc8GkW91wkG1R6Uz-2" target="0APZrc8GkW91wkG1R6Uz-5" edge="1">
          <mxGeometry width="50" height="50" relative="1" as="geometry">
            <mxPoint x="125" y="130" as="sourcePoint" />
            <mxPoint x="280" y="170" as="targetPoint" />
          </mxGeometry>
        </mxCell>
        <mxCell id="0APZrc8GkW91wkG1R6Uz-24" value="" style="endArrow=none;html=1;rounded=0;exitX=1;exitY=0.3333333333333333;exitDx=0;exitDy=0;exitPerimeter=0;entryX=0.008;entryY=0.633;entryDx=0;entryDy=0;entryPerimeter=0;" parent="1" source="0APZrc8GkW91wkG1R6Uz-2" target="0APZrc8GkW91wkG1R6Uz-8" edge="1">
          <mxGeometry width="50" height="50" relative="1" as="geometry">
            <mxPoint x="125" y="130" as="sourcePoint" />
            <mxPoint x="280" y="240" as="targetPoint" />
          </mxGeometry>
        </mxCell>
        <mxCell id="0APZrc8GkW91wkG1R6Uz-25" value="" style="endArrow=none;html=1;rounded=0;exitX=1;exitY=0.3333333333333333;exitDx=0;exitDy=0;exitPerimeter=0;entryX=0;entryY=0.5;entryDx=0;entryDy=0;" parent="1" source="0APZrc8GkW91wkG1R6Uz-2" target="0APZrc8GkW91wkG1R6Uz-9" edge="1">
          <mxGeometry width="50" height="50" relative="1" as="geometry">
            <mxPoint x="125" y="130" as="sourcePoint" />
            <mxPoint x="281" y="318" as="targetPoint" />
          </mxGeometry>
        </mxCell>
        <mxCell id="0APZrc8GkW91wkG1R6Uz-26" value="" style="endArrow=none;html=1;rounded=0;exitX=1;exitY=0.3333333333333333;exitDx=0;exitDy=0;exitPerimeter=0;entryX=0;entryY=0.5;entryDx=0;entryDy=0;" parent="1" source="0APZrc8GkW91wkG1R6Uz-2" target="0APZrc8GkW91wkG1R6Uz-11" edge="1">
          <mxGeometry width="50" height="50" relative="1" as="geometry">
            <mxPoint x="100" y="110" as="sourcePoint" />
            <mxPoint x="280" y="380" as="targetPoint" />
          </mxGeometry>
        </mxCell>
        <mxCell id="0APZrc8GkW91wkG1R6Uz-27" value="" style="endArrow=none;html=1;rounded=0;exitX=1;exitY=0.3333333333333333;exitDx=0;exitDy=0;exitPerimeter=0;entryX=0;entryY=0.5;entryDx=0;entryDy=0;" parent="1" source="0APZrc8GkW91wkG1R6Uz-2" target="0APZrc8GkW91wkG1R6Uz-12" edge="1">
          <mxGeometry width="50" height="50" relative="1" as="geometry">
            <mxPoint x="60" y="110" as="sourcePoint" />
            <mxPoint x="280" y="450" as="targetPoint" />
          </mxGeometry>
        </mxCell>
        <mxCell id="0APZrc8GkW91wkG1R6Uz-28" value="" style="endArrow=none;html=1;rounded=0;exitX=1;exitY=0.3333333333333333;exitDx=0;exitDy=0;exitPerimeter=0;entryX=0;entryY=0.5;entryDx=0;entryDy=0;" parent="1" source="0APZrc8GkW91wkG1R6Uz-2" target="0APZrc8GkW91wkG1R6Uz-13" edge="1">
          <mxGeometry width="50" height="50" relative="1" as="geometry">
            <mxPoint x="60" y="110" as="sourcePoint" />
            <mxPoint x="280" y="520" as="targetPoint" />
          </mxGeometry>
        </mxCell>
        <mxCell id="0APZrc8GkW91wkG1R6Uz-29" value="" style="endArrow=none;html=1;rounded=0;exitX=1;exitY=0.3333333333333333;exitDx=0;exitDy=0;exitPerimeter=0;entryX=0;entryY=0.5;entryDx=0;entryDy=0;" parent="1" source="0APZrc8GkW91wkG1R6Uz-2" target="0APZrc8GkW91wkG1R6Uz-15" edge="1">
          <mxGeometry width="50" height="50" relative="1" as="geometry">
            <mxPoint x="60" y="110" as="sourcePoint" />
            <mxPoint x="280" y="590" as="targetPoint" />
          </mxGeometry>
        </mxCell>
        <mxCell id="0APZrc8GkW91wkG1R6Uz-30" value="" style="endArrow=none;html=1;rounded=0;exitX=1;exitY=0.3333333333333333;exitDx=0;exitDy=0;exitPerimeter=0;entryX=0;entryY=0.5;entryDx=0;entryDy=0;" parent="1" source="0APZrc8GkW91wkG1R6Uz-2" target="0APZrc8GkW91wkG1R6Uz-16" edge="1">
          <mxGeometry width="50" height="50" relative="1" as="geometry">
            <mxPoint x="60" y="110" as="sourcePoint" />
            <mxPoint x="280" y="655" as="targetPoint" />
          </mxGeometry>
        </mxCell>
        <mxCell id="0APZrc8GkW91wkG1R6Uz-32" value="" style="endArrow=none;html=1;rounded=0;exitX=1;exitY=0.3333333333333333;exitDx=0;exitDy=0;exitPerimeter=0;entryX=0;entryY=0.5;entryDx=0;entryDy=0;" parent="1" source="0APZrc8GkW91wkG1R6Uz-2" target="0APZrc8GkW91wkG1R6Uz-19" edge="1">
          <mxGeometry width="50" height="50" relative="1" as="geometry">
            <mxPoint x="60" y="110" as="sourcePoint" />
            <mxPoint x="280" y="790" as="targetPoint" />
          </mxGeometry>
        </mxCell>
        <mxCell id="0APZrc8GkW91wkG1R6Uz-33" value="" style="endArrow=none;html=1;rounded=0;exitX=1;exitY=0.3333333333333333;exitDx=0;exitDy=0;exitPerimeter=0;entryX=0;entryY=0.5;entryDx=0;entryDy=0;" parent="1" source="0APZrc8GkW91wkG1R6Uz-2" target="0APZrc8GkW91wkG1R6Uz-20" edge="1">
          <mxGeometry width="50" height="50" relative="1" as="geometry">
            <mxPoint x="60" y="110" as="sourcePoint" />
            <mxPoint x="280" y="860" as="targetPoint" />
          </mxGeometry>
        </mxCell>
        <mxCell id="0APZrc8GkW91wkG1R6Uz-34" value="" style="endArrow=none;html=1;rounded=0;exitX=1;exitY=0.3333333333333333;exitDx=0;exitDy=0;exitPerimeter=0;entryX=0;entryY=0.5;entryDx=0;entryDy=0;" parent="1" source="0APZrc8GkW91wkG1R6Uz-2" target="0APZrc8GkW91wkG1R6Uz-10" edge="1">
          <mxGeometry width="50" height="50" relative="1" as="geometry">
            <mxPoint x="50" y="170" as="sourcePoint" />
            <mxPoint x="270" y="980" as="targetPoint" />
          </mxGeometry>
        </mxCell>
        <mxCell id="0APZrc8GkW91wkG1R6Uz-35" value="Include" style="endArrow=open;endSize=12;dashed=1;html=1;rounded=0;exitX=1;exitY=0.5;exitDx=0;exitDy=0;entryX=0;entryY=0.5;entryDx=0;entryDy=0;" parent="1" source="0APZrc8GkW91wkG1R6Uz-7" target="0APZrc8GkW91wkG1R6Uz-21" edge="1">
          <mxGeometry width="160" relative="1" as="geometry">
            <mxPoint x="390" y="159.5" as="sourcePoint" />
            <mxPoint x="550" y="159.5" as="targetPoint" />
          </mxGeometry>
        </mxCell>
        <mxCell id="0APZrc8GkW91wkG1R6Uz-36" value="Include" style="endArrow=open;endSize=12;dashed=1;html=1;rounded=0;exitX=1;exitY=0.5;exitDx=0;exitDy=0;entryX=0;entryY=0.5;entryDx=0;entryDy=0;" parent="1" source="0APZrc8GkW91wkG1R6Uz-5" target="0APZrc8GkW91wkG1R6Uz-6" edge="1">
          <mxGeometry width="160" relative="1" as="geometry">
            <mxPoint x="395" y="229.5" as="sourcePoint" />
            <mxPoint x="495" y="229.5" as="targetPoint" />
          </mxGeometry>
        </mxCell>
        <mxCell id="0APZrc8GkW91wkG1R6Uz-37" value="User/Produksi" style="shape=umlActor;verticalLabelPosition=bottom;verticalAlign=top;html=1;" parent="1" vertex="1">
          <mxGeometry x="30" y="420" width="30" height="60" as="geometry" />
        </mxCell>
        <mxCell id="0APZrc8GkW91wkG1R6Uz-39" value="" style="endArrow=none;html=1;rounded=0;exitX=1;exitY=0.3333333333333333;exitDx=0;exitDy=0;exitPerimeter=0;entryX=0;entryY=0.5;entryDx=0;entryDy=0;" parent="1" source="0APZrc8GkW91wkG1R6Uz-37" target="0APZrc8GkW91wkG1R6Uz-10" edge="1">
          <mxGeometry width="50" height="50" relative="1" as="geometry">
            <mxPoint x="70" y="390" as="sourcePoint" />
            <mxPoint x="270" y="990" as="targetPoint" />
          </mxGeometry>
        </mxCell>
        <mxCell id="0APZrc8GkW91wkG1R6Uz-40" value="" style="endArrow=none;html=1;rounded=0;exitX=1;exitY=0.3333333333333333;exitDx=0;exitDy=0;exitPerimeter=0;entryX=0;entryY=0.5;entryDx=0;entryDy=0;" parent="1" source="0APZrc8GkW91wkG1R6Uz-37" target="0APZrc8GkW91wkG1R6Uz-19" edge="1">
          <mxGeometry width="50" height="50" relative="1" as="geometry">
            <mxPoint x="70" y="500" as="sourcePoint" />
            <mxPoint x="280" y="1000" as="targetPoint" />
          </mxGeometry>
        </mxCell>
        <mxCell id="0APZrc8GkW91wkG1R6Uz-41" value="" style="endArrow=none;html=1;rounded=0;exitX=1;exitY=0.3333333333333333;exitDx=0;exitDy=0;exitPerimeter=0;entryX=0;entryY=0.5;entryDx=0;entryDy=0;" parent="1" source="0APZrc8GkW91wkG1R6Uz-37" target="0APZrc8GkW91wkG1R6Uz-11" edge="1">
          <mxGeometry width="50" height="50" relative="1" as="geometry">
            <mxPoint x="70" y="500" as="sourcePoint" />
            <mxPoint x="140" y="500" as="targetPoint" />
          </mxGeometry>
        </mxCell>
        <mxCell id="0APZrc8GkW91wkG1R6Uz-42" value="" style="endArrow=none;html=1;rounded=0;exitX=1;exitY=0.3333333333333333;exitDx=0;exitDy=0;exitPerimeter=0;entryX=0;entryY=0.5;entryDx=0;entryDy=0;" parent="1" source="0APZrc8GkW91wkG1R6Uz-37" target="0APZrc8GkW91wkG1R6Uz-8" edge="1">
          <mxGeometry width="50" height="50" relative="1" as="geometry">
            <mxPoint x="70" y="500" as="sourcePoint" />
            <mxPoint x="280" y="450" as="targetPoint" />
          </mxGeometry>
        </mxCell>
        <mxCell id="0APZrc8GkW91wkG1R6Uz-43" value="" style="endArrow=none;html=1;rounded=0;entryX=0;entryY=0.5;entryDx=0;entryDy=0;exitX=1;exitY=0.3333333333333333;exitDx=0;exitDy=0;exitPerimeter=0;" parent="1" source="0APZrc8GkW91wkG1R6Uz-37" target="0APZrc8GkW91wkG1R6Uz-5" edge="1">
          <mxGeometry width="50" height="50" relative="1" as="geometry">
            <mxPoint x="60" y="490" as="sourcePoint" />
            <mxPoint x="280" y="310" as="targetPoint" />
          </mxGeometry>
        </mxCell>
        <mxCell id="0APZrc8GkW91wkG1R6Uz-44" value="" style="endArrow=none;html=1;rounded=0;entryX=0;entryY=0.5;entryDx=0;entryDy=0;exitX=1;exitY=0.3333333333333333;exitDx=0;exitDy=0;exitPerimeter=0;" parent="1" source="0APZrc8GkW91wkG1R6Uz-37" target="0APZrc8GkW91wkG1R6Uz-7" edge="1">
          <mxGeometry width="50" height="50" relative="1" as="geometry">
            <mxPoint x="70" y="500" as="sourcePoint" />
            <mxPoint x="280" y="240" as="targetPoint" />
          </mxGeometry>
        </mxCell>
        <mxCell id="0APZrc8GkW91wkG1R6Uz-46" value="User/Gudang" style="shape=umlActor;verticalLabelPosition=bottom;verticalAlign=top;html=1;" parent="1" vertex="1">
          <mxGeometry x="30" y="540" width="30" height="60" as="geometry" />
        </mxCell>
        <mxCell id="0APZrc8GkW91wkG1R6Uz-48" value="" style="endArrow=none;html=1;rounded=0;exitX=1;exitY=0.3333333333333333;exitDx=0;exitDy=0;exitPerimeter=0;entryX=0;entryY=0.5;entryDx=0;entryDy=0;" parent="1" source="0APZrc8GkW91wkG1R6Uz-46" target="0APZrc8GkW91wkG1R6Uz-11" edge="1">
          <mxGeometry width="50" height="50" relative="1" as="geometry">
            <mxPoint x="70" y="450" as="sourcePoint" />
            <mxPoint x="280" y="450" as="targetPoint" />
          </mxGeometry>
        </mxCell>
        <mxCell id="0APZrc8GkW91wkG1R6Uz-49" value="" style="endArrow=none;html=1;rounded=0;exitX=1;exitY=0.3333333333333333;exitDx=0;exitDy=0;exitPerimeter=0;entryX=0;entryY=0.5;entryDx=0;entryDy=0;" parent="1" source="0APZrc8GkW91wkG1R6Uz-46" target="0APZrc8GkW91wkG1R6Uz-20" edge="1">
          <mxGeometry width="50" height="50" relative="1" as="geometry">
            <mxPoint x="70" y="570" as="sourcePoint" />
            <mxPoint x="280" y="450" as="targetPoint" />
          </mxGeometry>
        </mxCell>
        <mxCell id="0APZrc8GkW91wkG1R6Uz-50" value="" style="endArrow=none;html=1;rounded=0;exitX=1;exitY=0.3333333333333333;exitDx=0;exitDy=0;exitPerimeter=0;entryX=0;entryY=0.5;entryDx=0;entryDy=0;" parent="1" source="0APZrc8GkW91wkG1R6Uz-46" target="0APZrc8GkW91wkG1R6Uz-10" edge="1">
          <mxGeometry width="50" height="50" relative="1" as="geometry">
            <mxPoint x="70" y="570" as="sourcePoint" />
            <mxPoint x="280" y="860" as="targetPoint" />
          </mxGeometry>
        </mxCell>
        <mxCell id="0APZrc8GkW91wkG1R6Uz-51" value="" style="endArrow=none;html=1;rounded=0;exitX=1;exitY=0.3333333333333333;exitDx=0;exitDy=0;exitPerimeter=0;entryX=0;entryY=0.5;entryDx=0;entryDy=0;" parent="1" source="0APZrc8GkW91wkG1R6Uz-46" target="0APZrc8GkW91wkG1R6Uz-8" edge="1">
          <mxGeometry width="50" height="50" relative="1" as="geometry">
            <mxPoint x="70" y="570" as="sourcePoint" />
            <mxPoint x="280" y="450" as="targetPoint" />
          </mxGeometry>
        </mxCell>
        <mxCell id="0APZrc8GkW91wkG1R6Uz-52" value="" style="endArrow=none;html=1;rounded=0;exitX=1;exitY=0.3333333333333333;exitDx=0;exitDy=0;exitPerimeter=0;entryX=0;entryY=0.5;entryDx=0;entryDy=0;" parent="1" source="0APZrc8GkW91wkG1R6Uz-46" target="0APZrc8GkW91wkG1R6Uz-5" edge="1">
          <mxGeometry width="50" height="50" relative="1" as="geometry">
            <mxPoint x="70" y="570" as="sourcePoint" />
            <mxPoint x="280" y="310" as="targetPoint" />
          </mxGeometry>
        </mxCell>
        <mxCell id="0APZrc8GkW91wkG1R6Uz-53" value="" style="endArrow=none;html=1;rounded=0;exitX=1;exitY=0.3333333333333333;exitDx=0;exitDy=0;exitPerimeter=0;entryX=0;entryY=0.5;entryDx=0;entryDy=0;" parent="1" source="0APZrc8GkW91wkG1R6Uz-46" target="0APZrc8GkW91wkG1R6Uz-7" edge="1">
          <mxGeometry width="50" height="50" relative="1" as="geometry">
            <mxPoint x="70" y="570" as="sourcePoint" />
            <mxPoint x="280" y="240" as="targetPoint" />
          </mxGeometry>
        </mxCell>
        <mxCell id="0APZrc8GkW91wkG1R6Uz-54" value="order" style="ellipse;whiteSpace=wrap;html=1;" parent="1" vertex="1">
          <mxGeometry x="470" y="535" width="120" height="50" as="geometry" />
        </mxCell>
        <mxCell id="0APZrc8GkW91wkG1R6Uz-55" value="Include" style="endArrow=open;endSize=12;dashed=1;html=1;rounded=0;exitX=1;exitY=0.5;exitDx=0;exitDy=0;entryX=0;entryY=0.5;entryDx=0;entryDy=0;" parent="1" target="0APZrc8GkW91wkG1R6Uz-54" edge="1">
          <mxGeometry width="160" relative="1" as="geometry">
            <mxPoint x="390" y="645" as="sourcePoint" />
            <mxPoint x="495" y="644.5" as="targetPoint" />
          </mxGeometry>
        </mxCell>
        <mxCell id="0APZrc8GkW91wkG1R6Uz-57" value="Proses" style="ellipse;whiteSpace=wrap;html=1;" parent="1" vertex="1">
          <mxGeometry x="470" y="595" width="120" height="50" as="geometry" />
        </mxCell>
        <mxCell id="0APZrc8GkW91wkG1R6Uz-58" value="Include" style="endArrow=open;endSize=12;dashed=1;html=1;rounded=0;exitX=1;exitY=0.5;exitDx=0;exitDy=0;entryX=0;entryY=0.5;entryDx=0;entryDy=0;" parent="1" source="0APZrc8GkW91wkG1R6Uz-15" target="0APZrc8GkW91wkG1R6Uz-57" edge="1">
          <mxGeometry width="160" relative="1" as="geometry">
            <mxPoint x="380.0000000000002" y="655" as="sourcePoint" />
            <mxPoint x="495" y="699.5" as="targetPoint" />
          </mxGeometry>
        </mxCell>
        <mxCell id="0APZrc8GkW91wkG1R6Uz-60" value="Info" style="ellipse;whiteSpace=wrap;html=1;" parent="1" vertex="1">
          <mxGeometry x="470" y="470" width="120" height="50" as="geometry" />
        </mxCell>
        <mxCell id="0APZrc8GkW91wkG1R6Uz-61" value="Include" style="endArrow=open;endSize=12;dashed=1;html=1;rounded=0;exitX=1;exitY=0.5;exitDx=0;exitDy=0;entryX=0;entryY=0.5;entryDx=0;entryDy=0;" parent="1" source="0APZrc8GkW91wkG1R6Uz-15" target="0APZrc8GkW91wkG1R6Uz-60" edge="1">
          <mxGeometry width="160" relative="1" as="geometry">
            <mxPoint x="390.0000000000002" y="637.5" as="sourcePoint" />
            <mxPoint x="495" y="582.01" as="targetPoint" />
          </mxGeometry>
        </mxCell>
        <mxCell id="0APZrc8GkW91wkG1R6Uz-62" value="Delete" style="ellipse;whiteSpace=wrap;html=1;" parent="1" vertex="1">
          <mxGeometry x="470" y="660" width="120" height="50" as="geometry" />
        </mxCell>
        <mxCell id="0APZrc8GkW91wkG1R6Uz-63" value="Include" style="endArrow=open;endSize=12;dashed=1;html=1;rounded=0;exitX=1;exitY=0.5;exitDx=0;exitDy=0;entryX=0;entryY=0.5;entryDx=0;entryDy=0;" parent="1" source="0APZrc8GkW91wkG1R6Uz-15" target="0APZrc8GkW91wkG1R6Uz-62" edge="1">
          <mxGeometry width="160" relative="1" as="geometry">
            <mxPoint x="386.1600000000001" y="659.9999999999999" as="sourcePoint" />
            <mxPoint x="460" y="709.68" as="targetPoint" />
          </mxGeometry>
        </mxCell>
        <mxCell id="0APZrc8GkW91wkG1R6Uz-64" value="Tambah SPK" style="ellipse;whiteSpace=wrap;html=1;" parent="1" vertex="1">
          <mxGeometry x="470" y="720" width="120" height="50" as="geometry" />
        </mxCell>
        <mxCell id="0APZrc8GkW91wkG1R6Uz-65" value="Include" style="endArrow=open;endSize=12;dashed=1;html=1;rounded=0;exitX=1;exitY=0.5;exitDx=0;exitDy=0;entryX=0;entryY=0.5;entryDx=0;entryDy=0;" parent="1" source="0APZrc8GkW91wkG1R6Uz-15" target="0APZrc8GkW91wkG1R6Uz-64" edge="1">
          <mxGeometry width="160" relative="1" as="geometry">
            <mxPoint x="400" y="655" as="sourcePoint" />
            <mxPoint x="480" y="695" as="targetPoint" />
          </mxGeometry>
        </mxCell>
        <mxCell id="0APZrc8GkW91wkG1R6Uz-67" value="Validasi" style="ellipse;whiteSpace=wrap;html=1;" parent="1" vertex="1">
          <mxGeometry x="660" y="720" width="120" height="50" as="geometry" />
        </mxCell>
        <mxCell id="0APZrc8GkW91wkG1R6Uz-68" value="extends" style="html=1;verticalAlign=bottom;endArrow=open;dashed=1;endSize=8;curved=0;rounded=0;entryX=1;entryY=0.5;entryDx=0;entryDy=0;exitX=0;exitY=0.5;exitDx=0;exitDy=0;" parent="1" source="0APZrc8GkW91wkG1R6Uz-67" target="0APZrc8GkW91wkG1R6Uz-64" edge="1">
          <mxGeometry relative="1" as="geometry">
            <mxPoint x="670" y="744.58" as="sourcePoint" />
            <mxPoint x="590" y="744.58" as="targetPoint" />
          </mxGeometry>
        </mxCell>
        <mxCell id="0APZrc8GkW91wkG1R6Uz-69" value="status info" style="ellipse;whiteSpace=wrap;html=1;" parent="1" vertex="1">
          <mxGeometry x="470" y="800" width="120" height="50" as="geometry" />
        </mxCell>
        <mxCell id="0APZrc8GkW91wkG1R6Uz-70" value="extends" style="html=1;verticalAlign=bottom;endArrow=open;dashed=1;endSize=8;curved=0;rounded=0;entryX=1;entryY=0.5;entryDx=0;entryDy=0;exitX=0;exitY=0.5;exitDx=0;exitDy=0;" parent="1" source="0APZrc8GkW91wkG1R6Uz-69" target="0APZrc8GkW91wkG1R6Uz-19" edge="1">
          <mxGeometry relative="1" as="geometry">
            <mxPoint x="500" y="814.58" as="sourcePoint" />
            <mxPoint x="380.0000000000002" y="790" as="targetPoint" />
          </mxGeometry>
        </mxCell>
        <mxCell id="0APZrc8GkW91wkG1R6Uz-71" value="Verifikasi delete" style="ellipse;whiteSpace=wrap;html=1;" parent="1" vertex="1">
          <mxGeometry x="660" y="660" width="120" height="50" as="geometry" />
        </mxCell>
        <mxCell id="0APZrc8GkW91wkG1R6Uz-72" value="extends" style="html=1;verticalAlign=bottom;endArrow=open;dashed=1;endSize=8;curved=0;rounded=0;entryX=1;entryY=0.5;entryDx=0;entryDy=0;exitX=0;exitY=0.5;exitDx=0;exitDy=0;" parent="1" source="0APZrc8GkW91wkG1R6Uz-71" target="0APZrc8GkW91wkG1R6Uz-62" edge="1">
          <mxGeometry relative="1" as="geometry">
            <mxPoint x="660" y="684.58" as="sourcePoint" />
            <mxPoint x="590" y="684.58" as="targetPoint" />
          </mxGeometry>
        </mxCell>
        <mxCell id="pinABx_WeCuEf0bmrsNE-1" value="DATA FLOW DIAGRAM : BPU to PPC" style="text;html=1;align=center;verticalAlign=middle;whiteSpace=wrap;rounded=0;fontStyle=1" parent="1" vertex="1">
          <mxGeometry x="-1070" width="250" height="30" as="geometry" />
        </mxCell>
        <mxCell id="pinABx_WeCuEf0bmrsNE-2" value="" style="rounded=0;whiteSpace=wrap;html=1;" parent="1" vertex="1">
          <mxGeometry x="-1070" y="40" width="1030" height="1040" as="geometry" />
        </mxCell>
        <mxCell id="pinABx_WeCuEf0bmrsNE-3" value="" style="rounded=0;whiteSpace=wrap;html=1;" parent="1" vertex="1">
          <mxGeometry x="-1060" y="120" width="1010" height="950" as="geometry" />
        </mxCell>
        <mxCell id="pinABx_WeCuEf0bmrsNE-4" value="User" style="whiteSpace=wrap;html=1;align=center;" parent="1" vertex="1">
          <mxGeometry x="-805" y="70" width="100" height="40" as="geometry" />
        </mxCell>
        <mxCell id="pinABx_WeCuEf0bmrsNE-5" value="Admin" style="whiteSpace=wrap;html=1;align=center;" parent="1" vertex="1">
          <mxGeometry x="-380" y="70" width="100" height="40" as="geometry" />
        </mxCell>
        <mxCell id="pinABx_WeCuEf0bmrsNE-7" value="Sistem/Databse" style="whiteSpace=wrap;html=1;align=center;" parent="1" vertex="1">
          <mxGeometry x="-180" y="70" width="100" height="40" as="geometry" />
        </mxCell>
        <mxCell id="pinABx_WeCuEf0bmrsNE-9" value="" style="shape=ellipse;html=1;dashed=0;whiteSpace=wrap;aspect=fixed;strokeWidth=5;perimeter=ellipsePerimeter;" parent="1" vertex="1">
          <mxGeometry x="-720" y="1020" width="30" height="30" as="geometry" />
        </mxCell>
        <mxCell id="Hy7TB0UM2S-catEz_fpQ-12" value="" style="edgeStyle=orthogonalEdgeStyle;rounded=0;orthogonalLoop=1;jettySize=auto;html=1;" edge="1" parent="1" source="pinABx_WeCuEf0bmrsNE-10" target="Hy7TB0UM2S-catEz_fpQ-10">
          <mxGeometry relative="1" as="geometry" />
        </mxCell>
        <mxCell id="pinABx_WeCuEf0bmrsNE-10" value="" style="ellipse;shape=doubleEllipse;html=1;dashed=0;whiteSpace=wrap;aspect=fixed;" parent="1" vertex="1">
          <mxGeometry x="-770" y="130" width="30" height="30" as="geometry" />
        </mxCell>
        <mxCell id="pinABx_WeCuEf0bmrsNE-11" value="" style="endArrow=none;html=1;rounded=0;entryX=0.289;entryY=0.067;entryDx=0;entryDy=0;entryPerimeter=0;" parent="1" edge="1">
          <mxGeometry width="50" height="50" relative="1" as="geometry">
            <mxPoint x="-646.64" y="1070.3200000000002" as="sourcePoint" />
            <mxPoint x="-646.9999999999999" y="79.99999999999994" as="targetPoint" />
          </mxGeometry>
        </mxCell>
        <mxCell id="pinABx_WeCuEf0bmrsNE-12" value="" style="endArrow=none;html=1;rounded=0;entryX=0.289;entryY=0.067;entryDx=0;entryDy=0;entryPerimeter=0;" parent="1" edge="1">
          <mxGeometry width="50" height="50" relative="1" as="geometry">
            <mxPoint x="-227.64" y="1070" as="sourcePoint" />
            <mxPoint x="-227.9999999999999" y="79.67999999999995" as="targetPoint" />
          </mxGeometry>
        </mxCell>
        <mxCell id="pinABx_WeCuEf0bmrsNE-13" value="Request registrasi akun" style="rounded=1;whiteSpace=wrap;html=1;" parent="1" vertex="1">
          <mxGeometry x="-1020" y="175" width="120" height="30" as="geometry" />
        </mxCell>
        <mxCell id="Hy7TB0UM2S-catEz_fpQ-1" value="" style="endArrow=none;html=1;rounded=0;entryX=0.289;entryY=0.067;entryDx=0;entryDy=0;entryPerimeter=0;" edge="1" parent="1">
          <mxGeometry width="50" height="50" relative="1" as="geometry">
            <mxPoint x="-434.64" y="1070.16" as="sourcePoint" />
            <mxPoint x="-434.9999999999999" y="79.83999999999995" as="targetPoint" />
          </mxGeometry>
        </mxCell>
        <mxCell id="Hy7TB0UM2S-catEz_fpQ-2" value="Operator" style="whiteSpace=wrap;html=1;align=center;" vertex="1" parent="1">
          <mxGeometry x="-590" y="70" width="100" height="40" as="geometry" />
        </mxCell>
        <mxCell id="Hy7TB0UM2S-catEz_fpQ-3" value="" style="endArrow=none;html=1;rounded=0;entryX=0.289;entryY=0.067;entryDx=0;entryDy=0;entryPerimeter=0;" edge="1" parent="1">
          <mxGeometry width="50" height="50" relative="1" as="geometry">
            <mxPoint x="-861.64" y="1070" as="sourcePoint" />
            <mxPoint x="-861.9999999999999" y="79.67999999999995" as="targetPoint" />
          </mxGeometry>
        </mxCell>
        <mxCell id="Hy7TB0UM2S-catEz_fpQ-4" value="Guest" style="whiteSpace=wrap;html=1;align=center;" vertex="1" parent="1">
          <mxGeometry x="-1010" y="70" width="100" height="40" as="geometry" />
        </mxCell>
        <mxCell id="Hy7TB0UM2S-catEz_fpQ-19" value="" style="edgeStyle=orthogonalEdgeStyle;rounded=0;orthogonalLoop=1;jettySize=auto;html=1;" edge="1" parent="1" source="Hy7TB0UM2S-catEz_fpQ-5" target="pinABx_WeCuEf0bmrsNE-13">
          <mxGeometry relative="1" as="geometry" />
        </mxCell>
        <mxCell id="Hy7TB0UM2S-catEz_fpQ-5" value="" style="ellipse;shape=doubleEllipse;html=1;dashed=0;whiteSpace=wrap;aspect=fixed;" vertex="1" parent="1">
          <mxGeometry x="-975" y="130" width="30" height="30" as="geometry" />
        </mxCell>
        <mxCell id="Hy7TB0UM2S-catEz_fpQ-13" value="" style="edgeStyle=orthogonalEdgeStyle;rounded=0;orthogonalLoop=1;jettySize=auto;html=1;" edge="1" parent="1" source="Hy7TB0UM2S-catEz_fpQ-6" target="Hy7TB0UM2S-catEz_fpQ-11">
          <mxGeometry relative="1" as="geometry" />
        </mxCell>
        <mxCell id="Hy7TB0UM2S-catEz_fpQ-6" value="" style="ellipse;shape=doubleEllipse;html=1;dashed=0;whiteSpace=wrap;aspect=fixed;" vertex="1" parent="1">
          <mxGeometry x="-555" y="130" width="30" height="30" as="geometry" />
        </mxCell>
        <mxCell id="Hy7TB0UM2S-catEz_fpQ-10" value="Request registrasi akun" style="rounded=1;whiteSpace=wrap;html=1;" vertex="1" parent="1">
          <mxGeometry x="-815" y="175" width="120" height="30" as="geometry" />
        </mxCell>
        <mxCell id="Hy7TB0UM2S-catEz_fpQ-11" value="Request registrasi akun" style="rounded=1;whiteSpace=wrap;html=1;" vertex="1" parent="1">
          <mxGeometry x="-600" y="175" width="120" height="30" as="geometry" />
        </mxCell>
        <mxCell id="Hy7TB0UM2S-catEz_fpQ-14" value="Pembuatan akun berdasarkan role" style="rounded=1;whiteSpace=wrap;html=1;" vertex="1" parent="1">
          <mxGeometry x="-390" y="205" width="120" height="30" as="geometry" />
        </mxCell>
        <mxCell id="Hy7TB0UM2S-catEz_fpQ-15" value="" style="endArrow=classic;html=1;rounded=0;entryX=0;entryY=0.5;entryDx=0;entryDy=0;" edge="1" parent="1" target="Hy7TB0UM2S-catEz_fpQ-14">
          <mxGeometry width="50" height="50" relative="1" as="geometry">
            <mxPoint x="-960" y="220" as="sourcePoint" />
            <mxPoint x="-590" y="270" as="targetPoint" />
          </mxGeometry>
        </mxCell>
        <mxCell id="Hy7TB0UM2S-catEz_fpQ-16" value="" style="endArrow=none;html=1;rounded=0;" edge="1" parent="1">
          <mxGeometry width="50" height="50" relative="1" as="geometry">
            <mxPoint x="-960" y="220" as="sourcePoint" />
            <mxPoint x="-960" y="205" as="targetPoint" />
          </mxGeometry>
        </mxCell>
        <mxCell id="Hy7TB0UM2S-catEz_fpQ-17" value="" style="endArrow=classic;html=1;rounded=0;exitX=0.5;exitY=1;exitDx=0;exitDy=0;" edge="1" parent="1" source="Hy7TB0UM2S-catEz_fpQ-10">
          <mxGeometry width="50" height="50" relative="1" as="geometry">
            <mxPoint x="-640" y="320" as="sourcePoint" />
            <mxPoint x="-755" y="220" as="targetPoint" />
          </mxGeometry>
        </mxCell>
        <mxCell id="Hy7TB0UM2S-catEz_fpQ-18" value="" style="endArrow=classic;html=1;rounded=0;exitX=0.5;exitY=1;exitDx=0;exitDy=0;" edge="1" parent="1">
          <mxGeometry width="50" height="50" relative="1" as="geometry">
            <mxPoint x="-541" y="206" as="sourcePoint" />
            <mxPoint x="-541" y="221" as="targetPoint" />
          </mxGeometry>
        </mxCell>
      </root>
    </mxGraphModel>
  </diagram>
</mxfile>
